# xmcd
#
# Track frame offsets:
#	150
#	25010
#	43362
#	46912
#	74397
#	93742
#	112665
#	118352
#
# Disc length: 1838 seconds
#
# Revision: 2
# Processed by: cddbd v1.5.1PL0 Copyright (c) Steve Scherf et al.
# Submitted via: audiograbber 1.81.02
#
DISCID=6c072c08
DTITLE=Dave Mack - 13 Days
DYEAR=2005
DGENRE=Blues
TTITLE0=13 Days
TTITLE1=Somethin Ain't Right
TTITLE2=Can I Get A Witness (interlude)
TTITLE3=Part Time Lover
TTITLE4=Save Some Of Mine
TTITLE5=Swing Out
TTITLE6=Can't Let Her Go (interlude)
TTITLE7=Save Some Of Mine (rap version)
EXTD=
EXTT0=
EXTT1=
EXTT2=
EXTT3=
EXTT4=
EXTT5=
EXTT6=
EXTT7=
PLAYORDER=
